<?xml version="1.0" encoding="utf-8"?>
<!-- Generator: Adobe Illustrator 23.0.5, SVG Export Plug-In . SVG Version: 6.00 Build 0)  -->
<svg version="1.1" id="Layer_1" xmlns="http://www.w3.org/2000/svg" xmlns:xlink="http://www.w3.org/1999/xlink" x="0px" y="0px"
	 viewBox="0 0 32 32" style="enable-background:new 0 0 32 32;" xml:space="preserve">
<style type="text/css">
	.st0{fill:#6D6E72;}
</style>
<path class="st0" d="M10.7,14.6h-4c-0.7,0-1.3-0.6-1.3-1.3s0.6-1.3,1.3-1.3h4c0.7,0,1.3,0.6,1.3,1.3S11.4,14.6,10.7,14.6z
	 M31.7,31.6c-0.3,0.3-0.6,0.5-1,0.5c-0.3,0-0.6-0.1-0.9-0.3l-3.3-2.9c-1.4,1.2-3.2,1.9-5.1,1.9c-4.4,0-8-3.6-8-8.1s3.6-8.1,8-8.1
	c4.4,0,8,3.6,8,8.1c0,1.5-0.4,2.9-1.1,4.1l3.4,2.9C32.1,30.2,32.2,31,31.7,31.6z M22.6,25.8l3.6-3.5c0.5-0.5,0.5-1.4,0-1.9
	c-0.5-0.5-1.4-0.6-1.9,0l-3.6,3.5c-0.2,0.2-0.5,0.2-0.7,0l-1.8-1.8c-0.5-0.5-1.4-0.5-1.9,0c-0.5,0.5-0.5,1.4,0,1.9l1.8,1.8
	c0.6,0.6,1.4,0.9,2.2,0.9C21.2,26.7,22,26.4,22.6,25.8L22.6,25.8z M14.7,30.7c0,0.7-0.6,1.3-1.3,1.3H6.7C3,32,0,29,0,25.3V6.5
	c0-3.7,3-6.7,6.7-6.7h6c2.5,0,4.8,1,6.6,2.8l4.6,4.7c1.2,1.2,2,2.7,2.4,4.3c0.1,0.4,0,0.8-0.2,1.2c-0.3,0.3-0.6,0.5-1.1,0.5h-7.8
	c-2.2,0-4-1.8-4-4V2.5c-0.2,0-0.4,0-0.6,0h-6c-2.2,0-4,1.8-4,4v18.8c0,2.2,1.8,4,4,4h6.7C14.1,29.4,14.7,30,14.7,30.7L14.7,30.7z
	 M16,9.2c0,0.7,0.6,1.3,1.3,1.3h5.8c-0.3-0.5-0.7-1-1.1-1.4l-4.6-4.7C17,4,16.5,3.7,16,3.4V9.2z M9.3,17.3H6.7
	c-0.7,0-1.3,0.6-1.3,1.3c0,0.7,0.6,1.3,1.3,1.3h2.7c0.7,0,1.3-0.6,1.3-1.3C10.7,17.9,10.1,17.3,9.3,17.3z M9.3,22.6H6.7
	c-0.7,0-1.3,0.6-1.3,1.3c0,0.7,0.6,1.3,1.3,1.3h2.7c0.7,0,1.3-0.6,1.3-1.3C10.7,23.2,10.1,22.6,9.3,22.6z"/>
</svg>
