<?xml version="1.0" encoding="utf-8"?>
<!-- Generator: Adobe Illustrator 23.0.5, SVG Export Plug-In . SVG Version: 6.00 Build 0)  -->
<svg version="1.1" id="Layer_1" xmlns="http://www.w3.org/2000/svg" xmlns:xlink="http://www.w3.org/1999/xlink" x="0px" y="0px"
	 viewBox="0 0 53 53" style="enable-background:new 0 0 53 53;" xml:space="preserve">
<style type="text/css">
	.st0{clip-path:url(#SVGID_2_);}
	.st1{fill-rule:evenodd;clip-rule:evenodd;fill:#6D6E72;}
</style>
<g>
	<defs>
		<rect id="SVGID_1_" y="0" width="53" height="53"/>
	</defs>
	<clipPath id="SVGID_2_">
		<use xlink:href="#SVGID_1_"  style="overflow:visible;"/>
	</clipPath>
	<g class="st0">
		<path class="st1" d="M53,31.9c0-0.3-0.2-0.7-0.5-0.8c-0.2-0.1-0.5-0.1-0.7,0l-4.4,1.6L43,34.3L41.1,35c-0.3,0.1-0.5,0.4-0.6,0.7
			c0,0.3,0.1,0.7,0.4,0.9l1.2,0.8l1.1,0.8l1.1,0.8c-5.4,7.7-15,11.1-24,8.5S5,36.8,4.6,27.4c0-0.7-0.4-1.3-0.9-1.7
			c-0.5-0.4-1.2-0.6-1.9-0.4C0.7,25.5,0,26.5,0,27.6c0.4,11.4,8.1,21.2,19,24.4c10.9,3.2,22.6-0.9,29.1-10.3l3.4,2.4
			c0.3,0.2,0.6,0.2,0.9,0.1c0.3-0.2,0.5-0.5,0.5-0.8l0-7.7L53,31.9z"/>
		<path class="st1" d="M0.4,21.8c0,0,0.1,0.1,0.1,0.1C0.8,22,1,22,1.2,21.9l4.4-1.6l6.3-2.3c0.3-0.1,0.5-0.4,0.6-0.7
			c0-0.3-0.1-0.7-0.4-0.9L8.7,14c5.4-7.7,15-11.1,24-8.5c9,2.6,15.3,10.7,15.7,20.1c0,0.7,0.4,1.3,0.9,1.7c0.5,0.4,1.2,0.6,1.9,0.4
			c1.1-0.2,1.9-1.2,1.8-2.4C52.6,14.1,44.9,4.3,34,1.1S11.4,2,4.9,11.3L1.4,8.9C1.2,8.7,0.8,8.7,0.5,8.9C0.2,9,0,9.3,0,9.7v11.4
			C0,21.4,0.2,21.6,0.4,21.8z"/>
		<path class="st1" d="M35.6,12.8h-0.9c-0.5,0-0.9,0.4-0.9,0.9v1.6l2.7,2.6v-4.2C36.5,13.2,36.1,12.8,35.6,12.8z"/>
		<path class="st1" d="M23.8,32.9v5.5h5.5v-5.5c0-1.5-1.2-2.7-2.7-2.7C25,30.2,23.8,31.4,23.8,32.9z"/>
		<path class="st1" d="M35.6,38.4c0.5,0,0.9-0.4,0.9-0.9V25.6H16.5v11.9c0,0.5,0.4,0.9,0.9,0.9h4.6v-5.5c0-2.5,2-4.6,4.6-4.6
			s4.6,2,4.6,4.6v5.5L35.6,38.4L35.6,38.4z"/>
		<path class="st1" d="M39.1,22.9L26.8,11.1C26.7,11,26.6,11,26.5,11c-0.1,0-0.2,0-0.3,0.1L13.9,22.9c-0.1,0.1-0.2,0.3-0.1,0.5
			c0.1,0.2,0.2,0.3,0.4,0.3h24.8c0.2,0,0.3-0.2,0.4-0.3C39.3,23.3,39.3,23.1,39.1,22.9z"/>
	</g>
</g>
</svg>
