<?xml version="1.0" encoding="utf-8"?>
<!-- Generator: Adobe Illustrator 23.0.5, SVG Export Plug-In . SVG Version: 6.00 Build 0)  -->
<svg version="1.1" id="Layer_1" xmlns="http://www.w3.org/2000/svg" xmlns:xlink="http://www.w3.org/1999/xlink" x="0px" y="0px"
	 viewBox="0 0 58 48" style="enable-background:new 0 0 58 48;" xml:space="preserve">
<style type="text/css">
	.st0{fill:#6D6E72;}
</style>
<path class="st0" d="M57.9,25.1c0,0-0.1,0-0.1,0c-0.1,0-0.1,0-0.1,0l0,0c-0.1,0-0.2,0.1-0.3,0.1c-1.5,0.6-2.6,1.6-3.5,3
	c-0.2,0.4-0.4,0.7-0.5,1.1c0.2-1.3,0.3-1.7,0.3-3.2c0-0.1,0-0.1,0-0.2c0-0.2,0-0.3,0-0.5c0-0.2,0.1-0.3,0.2-0.5c0,0,0-0.1,0.1-0.1
	c0,0,0,0,0,0c0.4-0.1,0.8-0.2,1.1-0.5c0.3-0.3,0.6-0.7,0.8-1.1c0.8-1.5,1.2-3.2,1.1-5.1c0-0.2,0-0.3,0-0.5c0-0.1,0-0.2,0-0.3
	c0,0,0-0.1-0.1-0.1c0,0-0.1,0-0.1,0c0,0,0,0-0.1,0c0,0-0.1,0-0.1,0.1c-0.7,0.5-1.2,1.1-1.7,1.7c-0.8,1.1-1.3,2.4-1.4,3.8
	c0-0.2,0-0.3,0-0.5l0-0.1c0-0.6-0.1-1.2-0.1-1.9c0-0.2,0-0.3-0.1-0.5c-0.1-0.3-0.1-0.5,0-0.8c0-0.1,0-0.1,0.1-0.2
	c0-0.2,0.2-0.4,0.5-0.7l0,0c0.1-0.1,0.7-0.6,1-1.6c0.3-1,0.3-2.1,0.3-2.9l0,0c0-1.1-0.1-1.9-0.4-2.6c0-0.1-0.1-0.2-0.1-0.3
	c0-0.1,0-0.1-0.1-0.2c0,0-0.1-0.1-0.1-0.1l0,0c0,0-0.1,0-0.1,0.1L54.1,11c-1.1,1.4-1.7,2.9-1.6,4.7c0,0.3,0,0.6,0.1,1
	c-0.3-1-0.6-1.9-1-2.8c0,0,0,0,0-0.1l0-0.1c0-0.2,0-0.4,0-0.6c0,0,0-0.1,0.1-0.1c0.1-0.1,0.1-0.2,0.2-0.2c0.1-0.1,0.2-0.3,0.3-0.4
	c0.3-0.5,0.4-1.1,0.4-1.9c0-0.9-0.1-1.9-0.4-3C52,6.8,51.7,6,51.2,5.3c0,0-0.1-0.1-0.1-0.1c0,0,0,0-0.1-0.1C51.1,5,51,5,51,5
	c0,0-0.1,0-0.1,0.1c-0.6,1.1-0.9,2.2-0.9,3.5c0,1.1,0.2,2,0.4,2.7c-0.5-1-1.1-1.9-1.8-2.8l0,0c0,0,0,0,0,0c0-0.3-0.1-0.5-0.1-0.7
	c0,0,0,0,0-0.1c0-0.1,0.1-0.1,0.1-0.2c0.1-0.1,0.2-0.3,0.3-0.5c0.2-0.5,0.2-1.1,0.1-1.8c-0.2-1.5-0.9-2.9-2.1-4.3
	c-0.1-0.1-0.3-0.3-0.4-0.4l0,0c-0.1,0-0.1-0.1-0.2-0.2c0,0-0.1,0-0.1,0c0,0-0.1,0.1-0.1,0.1l0,0.1c0,0.1,0,0.1,0,0.2
	c-0.2,0.9-0.1,1.9,0,3.1c0.2,1.1,0.5,2.1,1.1,2.9c-0.8-1-1.6-1.8-2.5-2.5c0,0,0,0,0,0c0.1-0.6-0.1-1.1-0.4-1.6
	c-0.5-0.7-1.1-1.2-1.9-1.6c-0.5-0.2-1-0.4-1.5-0.6c-0.2-0.1-0.5-0.2-0.7-0.3C39.9,0,39.8,0,39.7,0c-0.1,0.1-0.1,0.1,0,0.2l0,0
	c0.3,1,0.7,1.8,1.2,2.4c0.9,1.1,2,1.7,3.4,1.8c0,0,0.1,0,0.1,0c0.2,0.1,0.3,0.2,0.4,0.4c0.4,0.3,0.8,0.7,1.1,1.1
	c-0.5-0.3-1.2-0.5-2-0.5c-0.4,0-0.8,0.1-1.2,0.1l0,0c-0.1,0-0.2,0-0.3,0.1c-0.3,0-0.5,0.1-0.7,0.1c-0.1,0-0.3,0.1-0.4,0.2
	c0,0,0,0.1,0,0.1c0,0,0,0.1,0.1,0.1C42,7,42.8,7.6,43.6,7.9c1.1,0.4,2.1,0.3,2.9-0.1c0.1-0.1,0.3-0.1,0.5-0.1c0.1,0,0.2,0,0.3,0
	c0.1,0,0.1,0,0.1,0.1c0.6,0.7,1.1,1.5,1.6,2.3c-0.4-0.4-1-0.7-1.7-0.8c-0.6-0.2-1.3-0.2-1.9-0.2l-0.2,0c-0.2,0-0.4,0-0.6,0l-0.3,0
	c0,0-0.1,0-0.1,0.1c0,0,0,0.1,0,0.1c0,0,0,0.1,0.1,0.1c0.7,1.1,1.5,1.9,2.4,2.4c0.9,0.5,1.8,0.6,2.6,0.4c0.1,0,0.2,0,0.3,0
	c0.4,0,0.6,0.1,0.7,0.2c0.5,1,0.9,1.9,1.2,3c-0.4-0.5-0.9-0.9-1.6-1.2c-0.7-0.3-1.3-0.6-2-0.9c-0.3-0.1-0.6-0.2-0.9-0.4
	c0,0-0.1,0-0.1,0c0,0-0.1,0.1-0.1,0.1c0,0.1,1,2.8,2.4,3.8c0.6,0.4,1.3,0.9,2.2,0.9c0.3,0,0.5,0,0.7,0.3c0,0,0.1,0.1,0.1,0.1
	c0.1,0,0.1,0.1,0.1,0.2c0.3,1.2,0.5,2.4,0.6,3.7c0-0.1-0.1-0.3-0.1-0.4c-0.3-0.8-0.8-1.5-1.7-2.2c-0.4-0.4-0.9-0.7-1.3-1l0,0
	c-0.2-0.2-0.4-0.3-0.6-0.5c0,0-0.1-0.1-0.1-0.1L49,17.5c0,0-0.1,0-0.2,0c-0.1,0-0.1,0.1-0.1,0.1c0,0.1,0,0.2,0,0.2l0,0
	c0,0.2,0,0.3,0,0.5c0.2,1.4,0.6,2.6,1.3,3.7c0.5,0.6,1.1,1.4,2.1,1.8c0.2,0.1,0.4,0.2,0.6,0.5c0.2,0.2,0.2,0.4,0.2,0.7
	c0,1.1-0.1,2.2-0.2,3.3c0-0.3-0.1-0.6-0.2-0.9c-0.2-0.7-0.6-1.3-1-2c-0.4-0.6-0.9-1.2-1.3-1.7l0,0c-0.2-0.2-0.3-0.4-0.5-0.7
	c0,0-0.1-0.1-0.1-0.1c0,0-0.1,0-0.1,0c0,0-0.1,0-0.1,0.1l0,0c0,0,0,0,0,0.1c-0.3,1.7-0.1,3.3,0.5,4.7c0.3,0.7,0.8,1.5,1.5,2.1
	c0.3,0.3,0.6,0.6,0.8,1c0,0.1,0,0.1,0,0.1c-0.3,1.3-0.7,2.6-1.3,3.8c0.1-0.6,0.1-1.3,0-2c-0.2-1-0.6-1.9-0.9-2.8L50,29.9
	c-0.2-0.4-0.3-0.8-0.5-1.2c0-0.1-0.1-0.1-0.1-0.1c-0.1,0-0.1,0-0.1,0.1l-0.1,0.1c0,0,0,0.1-0.1,0.1c-0.7,1.5-0.9,3-0.7,4.5
	c0.2,1.1,0.4,1.9,0.9,2.5c0.2,0.3,0.4,0.7,0.5,1.2c0,0.1,0,0.2,0,0.3c-0.6,1-1.2,1.9-1.9,2.7c0,0,0,0,0,0c0.5-0.9,0.5-1.9,0.5-2.7
	c0-0.7-0.1-1.4-0.2-2.1l0,0c0-0.3-0.1-0.5-0.1-0.8c0-0.2,0-0.3-0.1-0.5l0-0.2c0,0,0-0.1-0.1-0.1c-0.1,0-0.2,0-0.3,0.2
	c-0.9,1.1-1.5,2.3-1.7,3.7c-0.2,1.4-0.1,2.6,0.4,3.7c0,0,0,0.1,0,0.1l0,0.6c0,0,0,0.1,0,0.1c-0.9,0.9-1.9,1.7-3,2.3
	c0.5-0.5,0.9-1.1,1.1-1.9c0.3-0.9,0.4-1.7,0.5-2.6l0-0.1c0-0.3,0.1-0.6,0.1-0.9l0.1-0.4c0-0.1,0-0.1-0.1-0.1c0,0-0.1,0-0.1,0l0,0
	c-0.1,0-0.1,0-0.1,0.1c-2.1,1-3.4,3.4-3.2,5.7c0,0.4,0,0.7-0.1,1c0,0,0,0.1-0.1,0.1c-1,0.4-1.9,0.7-2.9,0.9c0,0-0.1,0-0.1,0.1
	c0,0,0,0.1,0,0.1c0.1,0.1,0.2,0.3,0.3,0.4c0,0.1,0.1,0.1,0.2,0.1c0.8-0.2,1.5-0.4,2.2-0.7c0.1,0,0.1,0,0.1,0c0.2,0,0.3,0.1,0.5,0.1
	c0,0,0.1,0,0.1,0c0.4,0.8,1.1,1.3,2.1,1.6c0.2,0.1,0.5,0.1,0.7,0.1c0.2,0,0.5,0,0.8,0c0.4,0,0.7,0,0.7,0c0.9-0.1,1.6-0.3,2.3-0.6
	c0.3-0.1,0.6-0.3,0.8-0.6c0-0.1,0-0.1,0-0.2c-0.7-0.6-1.4-1-2.1-1.3c-1.1-0.4-2.1-0.6-3.1-0.4c-0.1,0-0.3,0.1-0.4,0.1
	c0.9-0.6,1.8-1.2,2.6-1.9c0,0,0,0,0.1,0c0.1,0,0.3-0.1,0.5-0.1c0,0,0,0,0,0c0.5,0.6,1.2,0.8,2,0.8c0,0,0.1,0,0.1,0
	c0.9,0,1.8-0.3,2.7-0.7c0.6-0.3,1.3-0.7,1.9-1.3c0.1-0.1,0.2-0.3,0.3-0.4l0,0c0-0.1,0.1-0.1,0.1-0.2c0,0,0-0.1,0-0.1
	c0,0,0-0.1-0.1-0.1c0,0-0.2-0.1-0.5-0.2c-1.4-0.5-2.8-0.6-4.2-0.2c-0.4,0.1-0.9,0.4-1.3,0.7c0.8-0.9,1.5-1.8,2.1-2.9c0,0,0,0,0,0
	c0.1,0,0.1-0.1,0.2-0.1c0.1-0.1,0.2-0.1,0.3-0.2c0.1-0.1,0.1-0.1,0.2,0c0.1,0.1,0.3,0.1,0.4,0.1c0.7,0.2,1.4,0.1,2.2-0.3
	c0.7-0.3,1.3-0.9,1.8-1.4c0.7-0.8,1.2-1.5,1.5-2.2c0.1-0.2,0.1-0.3,0.1-0.5c0-0.1,0-0.1,0.1-0.2c0-0.1,0-0.1-0.1-0.2l-0.1,0
	c-0.3,0-2.9,0-4.4,1.5c-0.3,0.3-0.6,0.7-0.9,1c0.6-1.3,1.1-2.6,1.5-4l0,0c0,0,0,0,0,0l0.4-0.5c0,0,0,0,0,0c0,0,0,0,0,0l0.1,0
	c0.3,0,0.5,0,0.6,0c0.6-0.1,1.1-0.4,1.6-0.9c1.1-1.2,1.9-2.6,2.4-4.4c0.1-0.2,0.1-0.4,0.1-0.6c0-0.1,0-0.2,0-0.3
	C58,25.2,58,25.1,57.9,25.1z"/>
<path class="st0" d="M19.6,46.2c-0.9-0.2-1.9-0.5-2.9-0.9c0,0,0,0-0.1-0.1c-0.1-0.3-0.1-0.7-0.1-1c0.2-2.3-1.2-4.7-3.2-5.7
	c0,0-0.1,0-0.1-0.1l0,0c0,0-0.1,0-0.1,0c0,0-0.1,0.1-0.1,0.1l0.1,0.4c0.1,0.3,0.1,0.6,0.1,0.9l0,0.1c0.1,0.9,0.3,1.8,0.5,2.6
	c0.2,0.8,0.6,1.4,1.1,1.9c-1.1-0.6-2.1-1.4-3-2.3c0,0,0-0.1,0-0.1l0-0.6c0,0,0-0.1,0-0.1c0.5-1.1,0.6-2.3,0.4-3.7
	c-0.2-1.3-0.8-2.6-1.7-3.7c-0.1-0.1-0.2-0.2-0.3-0.2c0,0,0,0-0.1,0c0,0-0.1,0.1-0.1,0.1l0,0.2c0,0.2,0,0.3-0.1,0.5
	c0,0.3-0.1,0.5-0.1,0.8l0,0c-0.1,0.7-0.2,1.4-0.2,2.1c-0.1,0.8,0,1.8,0.5,2.7c0,0,0,0,0,0c-0.7-0.8-1.3-1.8-1.9-2.7
	c0-0.1-0.1-0.2,0-0.3c0-0.5,0.3-0.8,0.5-1.2c0.4-0.7,0.7-1.4,0.9-2.5c0.2-1.5,0-3-0.7-4.5c0,0,0-0.1-0.1-0.1l-0.1-0.1
	c0,0-0.1-0.1-0.1-0.1c-0.1,0-0.1,0-0.1,0.1c-0.2,0.4-0.3,0.8-0.5,1.2l-0.1,0.2c-0.3,0.8-0.7,1.8-0.9,2.8c-0.2,0.7-0.2,1.4,0,2
	c-0.5-1.2-0.9-2.5-1.3-3.8c0,0,0-0.1,0-0.1c0.2-0.4,0.4-0.8,0.8-1c0.8-0.6,1.2-1.4,1.5-2.1c0.7-1.5,0.8-3,0.5-4.7c0,0,0,0,0-0.1l0,0
	c0,0,0-0.1-0.1-0.1c0,0-0.1,0-0.1,0c0,0-0.1,0-0.1,0.1c-0.2,0.2-0.3,0.4-0.5,0.7l0,0c-0.4,0.6-0.9,1.1-1.3,1.7c-0.5,0.7-0.8,1.3-1,2
	c-0.1,0.3-0.2,0.6-0.2,0.9C5,27.2,5,26.1,4.9,25c0-0.3,0-0.5,0.2-0.7c0.2-0.2,0.4-0.4,0.6-0.5c1-0.4,1.7-1.2,2.1-1.8
	c0.7-1,1.2-2.2,1.3-3.7c0-0.1,0-0.3,0-0.5l0,0c0-0.1,0-0.2,0-0.2c0-0.1,0-0.1-0.1-0.1c0,0-0.1,0-0.2,0l-0.1,0.1c0,0-0.1,0.1-0.1,0.1
	c-0.2,0.2-0.4,0.3-0.6,0.5l0,0c-0.4,0.3-0.9,0.7-1.3,1c-0.8,0.7-1.3,1.4-1.7,2.2c-0.1,0.1-0.1,0.3-0.1,0.4c0.1-1.3,0.3-2.5,0.6-3.7
	c0-0.1,0.1-0.2,0.1-0.2c0,0,0.1,0,0.1-0.1c0.2-0.2,0.5-0.3,0.7-0.3c0.9,0,1.6-0.5,2.2-0.9c1.4-1.1,2.4-3.7,2.4-3.8
	c0,0,0-0.1-0.1-0.1c0,0-0.1,0-0.1,0c-0.3,0.1-0.6,0.2-0.9,0.4c-0.7,0.3-1.4,0.6-2,0.9c-0.7,0.3-1.2,0.7-1.6,1.2c0.4-1,0.8-2,1.2-3
	C7.9,12.1,8.1,12,8.5,12c0.1,0,0.2,0,0.3,0c0.8,0.2,1.7,0.1,2.6-0.4c0.9-0.5,1.7-1.2,2.4-2.4c0,0,0-0.1,0.1-0.1c0,0,0-0.1,0-0.1
	c0,0-0.1-0.1-0.1-0.1h0l-0.3,0c-0.2,0-0.4,0-0.6,0l-0.2,0c-0.6,0-1.3,0.1-1.9,0.2C9.9,9.4,9.4,9.7,9,10.1c0.5-0.8,1-1.6,1.6-2.3
	c0,0,0.1,0,0.1-0.1c0,0,0.1,0,0.3,0c0.2,0,0.4,0,0.5,0.1c0.9,0.4,1.9,0.5,2.9,0.1C15.2,7.6,16,7,16.6,6.2c0,0,0-0.1,0.1-0.1
	c0,0,0-0.1,0-0.1c-0.1-0.1-0.3-0.2-0.4-0.2c-0.2,0-0.5-0.1-0.7-0.1c-0.1,0-0.2,0-0.3-0.1l0,0c-0.4-0.1-0.8-0.1-1.2-0.1
	c-0.8,0-1.4,0.1-2,0.5c0.4-0.4,0.7-0.8,1.1-1.1c0.1-0.1,0.3-0.2,0.4-0.4c0,0,0.1,0,0.1,0c1.3-0.1,2.4-0.6,3.4-1.8
	c0.5-0.6,0.9-1.4,1.2-2.4l0,0c0-0.1,0-0.2,0-0.2c-0.1-0.1-0.2,0-0.4,0.1c-0.2,0.1-0.5,0.2-0.7,0.3c-0.5,0.2-1,0.4-1.5,0.6
	c-0.8,0.3-1.4,0.9-1.9,1.6c-0.4,0.5-0.5,1.1-0.4,1.6c0,0,0,0,0,0c-0.8,0.7-1.6,1.5-2.5,2.5c0.6-0.8,0.9-1.8,1.1-2.9
	c0.2-1.1,0.2-2.1,0-3.1c0-0.1,0-0.1,0-0.2l0-0.1c0,0,0-0.1-0.1-0.1c0,0-0.1,0-0.1,0c-0.1,0.1-0.1,0.1-0.2,0.2l0,0
	c-0.1,0.1-0.3,0.2-0.4,0.4C9.9,2.2,9.2,3.6,9,5.1C8.9,5.8,8.9,6.4,9.1,6.9c0.1,0.2,0.2,0.3,0.3,0.5c0,0.1,0.1,0.1,0.1,0.2
	c0,0.1,0,0.1,0,0.1c0,0.2,0,0.4-0.1,0.7c0,0,0,0,0,0l0,0c-0.6,0.9-1.2,1.8-1.8,2.8c0.2-0.7,0.4-1.6,0.4-2.7c0-1.3-0.3-2.4-0.9-3.5
	C7.1,5,7.1,5,7,5C7,5,6.9,5,6.9,5c0,0,0,0-0.1,0.1c0,0-0.1,0.1-0.1,0.1C6.3,6,6,6.8,5.9,7.4c-0.3,1.1-0.4,2.1-0.4,3
	c0,0.8,0.1,1.4,0.4,1.9c0.1,0.2,0.2,0.3,0.3,0.4c0.1,0.1,0.1,0.1,0.2,0.2c0,0.1,0.1,0.1,0.1,0.1c0,0.2,0,0.4,0,0.6l0,0.1
	c0,0,0,0,0,0.1c-0.4,0.9-0.7,1.9-1,2.8c0-0.3,0.1-0.7,0.1-1C5.5,14,5,12.4,3.9,11l-0.2-0.3c0,0-0.1-0.1-0.1-0.1l0,0
	c0,0-0.1,0-0.1,0.1c0,0.1,0,0.1-0.1,0.2c0,0.1-0.1,0.2-0.1,0.3C3,12,2.9,12.8,2.9,13.9l0,0c0,0.8,0,1.9,0.3,2.9c0.3,1,0.9,1.5,1,1.6
	l0,0c0.3,0.3,0.5,0.5,0.5,0.7c0,0.1,0,0.1,0.1,0.2c0.1,0.3,0,0.5,0,0.8c0,0.1-0.1,0.3-0.1,0.4c0,0.6-0.1,1.2-0.1,1.9l0,0.1
	c0,0.2,0,0.3,0,0.5c-0.1-1.4-0.6-2.6-1.4-3.8c-0.5-0.7-1.1-1.3-1.7-1.7c0,0-0.1,0-0.1-0.1c0,0,0,0-0.1,0c0,0-0.1,0-0.1,0
	c0,0-0.1,0.1-0.1,0.1c0,0.1,0,0.2,0,0.3c0,0.2,0,0.4,0,0.5c0,1.8,0.4,3.5,1.1,5.1c0.2,0.4,0.5,0.8,0.8,1.1c0.3,0.3,0.7,0.5,1.1,0.5
	c0,0,0,0,0,0c0,0,0,0.1,0.1,0.1c0.1,0.2,0.2,0.3,0.2,0.5c0,0.1,0,0.3,0,0.5c0,0.1,0,0.1,0,0.2c0,1.4,0.1,1.9,0.3,3.2
	c-0.1-0.4-0.3-0.7-0.5-1.1c-0.9-1.5-2.1-2.4-3.5-3c-0.1,0-0.2-0.1-0.3-0.1l0,0c0,0-0.1,0-0.1,0c0,0-0.1,0-0.1,0c0,0-0.1,0.1-0.1,0.1
	c0,0.1,0,0.2,0,0.3c0,0.2,0,0.4,0.1,0.6c0.5,1.8,1.2,3.3,2.4,4.4C3,31,3.5,31.3,4,31.4c0.1,0,0.3,0,0.6,0l0.1,0c0,0,0,0,0,0
	c0,0,0,0,0,0L5.2,32c0,0,0,0,0,0.1l0,0c0.4,1.4,0.9,2.7,1.5,4c-0.3-0.4-0.6-0.7-0.9-1c-1.5-1.5-4.1-1.5-4.4-1.5l0,0l0,0
	c-0.1,0-0.1,0.1-0.1,0.2c0,0.1,0,0.1,0.1,0.2c0,0.2,0.1,0.3,0.1,0.5C1.8,35,2.3,35.7,3,36.5c0.5,0.5,1,1.1,1.8,1.4
	c0.8,0.4,1.5,0.5,2.2,0.3c0.1,0,0.3-0.1,0.4-0.1C7.4,38,7.4,38,7.5,38c0.1,0.1,0.2,0.1,0.3,0.2c0.1,0,0.1,0.1,0.2,0.1c0,0,0,0,0,0
	c0.6,1,1.3,2,2.1,2.9c-0.4-0.3-0.8-0.5-1.3-0.7c-1.4-0.4-2.8-0.4-4.2,0.2c-0.2,0.1-0.4,0.2-0.5,0.2c0,0-0.1,0.1-0.1,0.1
	c0,0,0,0.1,0,0.1c0,0.1,0.1,0.1,0.1,0.2l0,0c0.1,0.1,0.2,0.3,0.3,0.4c0.5,0.6,1.2,1,1.9,1.3c0.9,0.5,1.8,0.7,2.7,0.7
	c0,0,0.1,0,0.1,0c0.8,0,1.5-0.3,2-0.8c0,0,0,0,0,0c0.2,0,0.4,0,0.5,0.1c0,0,0,0,0.1,0c0.8,0.7,1.7,1.4,2.6,1.9
	c-0.1,0-0.3-0.1-0.4-0.1c-1-0.2-2-0.1-3.1,0.4c-0.7,0.3-1.4,0.7-2.1,1.3c-0.1,0-0.1,0.1,0,0.2c0.2,0.3,0.6,0.5,0.8,0.6
	c0.7,0.3,1.4,0.5,2.3,0.6c0,0,0.3,0,0.7,0c0.3,0,0.6,0,0.8,0c0.2,0,0.5-0.1,0.7-0.1c1-0.2,1.7-0.8,2.1-1.6c0,0,0,0,0.1,0
	c0.2,0,0.4-0.1,0.5-0.1c0,0,0.1,0,0.1,0c0.7,0.3,1.5,0.5,2.2,0.7c0,0,0,0,0,0c0.1,0,0.1,0,0.1-0.1c0.1-0.1,0.2-0.3,0.3-0.4
	c0,0,0-0.1,0-0.1C19.7,46.2,19.6,46.2,19.6,46.2z"/>
<path class="st0" d="M35.9,27.5l5.8-5.7c0.2-0.2,0.3-0.5,0.2-0.7c-0.1-0.3-0.3-0.5-0.6-0.5l-8.1-1.2l-3.6-7.3
	c-0.1-0.2-0.4-0.4-0.7-0.4c-0.3,0-0.5,0.2-0.7,0.4l-3.6,7.3l-8.1,1.2c-0.3,0-0.5,0.2-0.6,0.5c-0.1,0.3,0,0.6,0.2,0.7l5.8,5.7l-1.4,8
	c0,0.3,0.1,0.5,0.3,0.7c0.2,0.2,0.5,0.2,0.8,0.1l7.2-3.8l7.2,3.8c0.1,0.1,0.2,0.1,0.3,0.1c0.2,0,0.3,0,0.4-0.1
	c0.2-0.2,0.3-0.4,0.3-0.7L35.9,27.5z"/>
</svg>
